<svg width="400" height="500" viewBox="0 0 400 500" fill="none" xmlns="http://www.w3.org/2000/svg">
<g clip-path="url(#clip0_3_5)">
<path fill-rule="evenodd" clip-rule="evenodd" d="M283.648 147C327.658 147 512.629 509.695 491.634 543.744C470.647 577.8 96.6492 577.8 75.6542 543.744C54.6592 509.688 239.637 147 283.648 147Z" stroke="white" stroke-opacity="0.1" stroke-miterlimit="10"/>
<path fill-rule="evenodd" clip-rule="evenodd" d="M293.551 172.454C333.341 172.454 500.577 500.299 481.603 531.085C462.628 561.871 124.53 561.899 105.549 531.114C86.5746 500.335 253.761 172.454 293.551 172.454V172.454Z" stroke="white" stroke-opacity="0.1" stroke-miterlimit="10"/>
<path fill-rule="evenodd" clip-rule="evenodd" d="M303.454 197.902C339.016 197.902 488.532 490.903 471.571 518.419C454.617 545.934 152.412 545.984 135.444 518.476C118.476 490.968 267.884 197.909 303.454 197.902Z" stroke="white" stroke-opacity="0.1" stroke-miterlimit="10"/>
<path fill-rule="evenodd" clip-rule="evenodd" d="M313.356 223.356C344.698 223.349 476.479 481.507 461.539 505.752C446.599 529.997 180.292 530.076 165.338 505.838C150.384 481.6 282.014 223.363 313.356 223.356V223.356Z" stroke="white" stroke-opacity="0.1" stroke-miterlimit="10"/>
<path fill-rule="evenodd" clip-rule="evenodd" d="M323.252 248.803C350.366 248.789 464.42 472.104 451.5 493.086C438.581 514.06 208.166 514.168 195.225 493.2C182.284 472.233 296.137 248.818 323.252 248.803V248.803Z" stroke="white" stroke-opacity="0.1" stroke-miterlimit="10"/>
<path fill-rule="evenodd" clip-rule="evenodd" d="M333.155 274.258C356.048 274.244 452.375 462.715 441.469 480.419C430.563 498.131 236.047 498.26 225.12 480.562C214.193 462.865 310.268 274.272 333.155 274.258Z" stroke="white" stroke-opacity="0.1" stroke-miterlimit="10"/>
<path fill-rule="evenodd" clip-rule="evenodd" d="M343.057 299.712C361.723 299.691 440.322 453.319 431.437 467.76C422.552 482.201 263.928 482.359 255.014 467.939C246.101 453.519 324.391 299.734 343.057 299.719L343.057 299.712Z" stroke="white" stroke-opacity="0.1" stroke-miterlimit="10"/>
<path fill-rule="evenodd" clip-rule="evenodd" d="M352.96 325.16C367.406 325.138 428.277 443.916 421.405 455.087C414.533 466.257 291.809 466.443 284.909 455.294C278.002 444.145 338.522 325.181 352.967 325.16L352.96 325.16Z" stroke="white" stroke-opacity="0.1" stroke-miterlimit="10"/>
<path fill-rule="evenodd" clip-rule="evenodd" d="M362.863 350.614C373.081 350.592 416.225 434.527 411.374 442.427C406.522 450.328 319.691 450.542 314.804 442.663C309.917 434.785 352.652 350.643 362.87 350.614L362.863 350.614Z" stroke="white" stroke-opacity="0.1" stroke-miterlimit="10"/>
<path fill-rule="evenodd" clip-rule="evenodd" d="M372.766 376.061C378.756 376.033 404.172 425.124 401.335 429.761C398.497 434.391 347.564 434.634 344.691 430.026C341.81 425.417 366.775 376.09 372.766 376.068L372.766 376.061Z" stroke="white" stroke-opacity="0.1" stroke-miterlimit="10"/>
<path fill-rule="evenodd" clip-rule="evenodd" d="M382.668 401.516C384.438 401.487 392.127 415.735 391.303 417.095C390.486 418.461 375.453 418.719 374.578 417.388C373.704 416.057 380.891 401.544 382.661 401.516L382.668 401.516Z" stroke="white" stroke-opacity="0.1" stroke-miterlimit="10"/>
</g>
<defs>
<clipPath id="clip0_3_5">
<rect width="400" height="500" fill="white"/>
</clipPath>
</defs>
</svg>
