<svg width="168" height="168" viewBox="0 0 168 168" fill="none" xmlns="http://www.w3.org/2000/svg">
<path fill-rule="evenodd" clip-rule="evenodd" d="M84 0C66.8588 0 55.9711 21.3772 34.1957 64.1315L34.1956 64.1316L22.5005 87.094C4.04768 123.325 -5.17874 141.44 2.99618 154.72C11.1711 168 31.549 168 72.3049 168H95.6951C136.451 168 156.829 168 165.004 154.72C173.179 141.44 163.952 123.325 145.499 87.094L133.804 64.1316C112.029 21.3772 101.141 0 84 0ZM57.1652 67.9402L57.1652 67.9402L57.1652 67.9403L44.4936 81.4929C24.5001 102.877 14.5033 113.568 17.5306 124.367C20.5578 135.165 34.684 139.204 62.9365 147.281L79.1509 151.917C107.403 159.994 121.53 164.032 129.836 156.474C138.143 148.916 135.348 134.567 129.758 105.869L126.215 87.681C119.619 53.816 116.321 36.8835 104.438 33.4864C92.5555 30.0893 80.7588 42.7063 57.1652 67.9402ZM105.161 69.8859C99.3095 66.2402 91.0323 71.2006 74.4779 81.1216L65.5869 86.4499C51.5585 94.8571 44.5442 99.0607 44.5021 105.319C44.46 111.578 51.4168 115.912 65.3304 124.581L73.3156 129.555C87.2292 138.224 94.186 142.558 99.8097 139.776C105.433 136.995 106.148 128.867 107.577 112.61L108.483 102.307C110.17 83.1234 111.013 73.5316 105.161 69.8859ZM102.955 88.0136C100.036 84.7812 94.1385 86.3578 82.3436 89.5109L76.0088 91.2044C66.0136 93.8764 61.0161 95.2124 59.8965 99.0088C58.777 102.805 62.2473 106.648 69.1881 114.333L73.1715 118.744L73.1715 118.744C80.1123 126.43 83.5826 130.273 87.4866 129.559C91.3905 128.846 93.2456 124.03 96.9557 114.399L99.3071 108.295C103.685 96.9289 105.874 91.246 102.955 88.0136Z" fill="url(#paint0_radial_0_24)"/>
<defs>
<radialGradient id="paint0_radial_0_24" cx="0" cy="0" r="1" gradientUnits="userSpaceOnUse" gradientTransform="translate(165.375 9.85712e-06) rotate(135) scale(237.588 237.588)">
<stop stop-color="#1B31F8"/>
<stop offset="0.559722" stop-color="#348EF8"/>
<stop offset="1" stop-color="#621BF8"/>
</radialGradient>
</defs>
</svg>
